<svg xmlns="http://www.w3.org/2000/svg" xmlns:xlink="http://www.w3.org/1999/xlink" width="500" zoomAndPan="magnify" viewBox="0 0 375 374.999991" height="500" preserveAspectRatio="xMidYMid meet" version="1.0"><defs><clipPath id="314d934b9a"><path d="M 66.089844 66.5 L 309 66.5 L 309 308.5 L 66.089844 308.5 Z M 66.089844 66.5 " clip-rule="nonzero"/></clipPath><clipPath id="8df5d9dc90"><path d="M 92.339844 66.5 L 282.660156 66.5 C 297.15625 66.5 308.910156 78.253906 308.910156 92.75 L 308.910156 282.25 C 308.910156 296.746094 297.15625 308.5 282.660156 308.5 L 92.339844 308.5 C 77.84375 308.5 66.089844 296.746094 66.089844 282.25 L 66.089844 92.75 C 66.089844 78.253906 77.84375 66.5 92.339844 66.5 Z M 92.339844 66.5 " clip-rule="nonzero"/></clipPath><clipPath id="f4cd922c91"><path d="M 137.679688 191.769531 L 237.300781 191.769531 L 237.300781 291.394531 L 137.679688 291.394531 Z M 137.679688 191.769531 " clip-rule="nonzero"/></clipPath><clipPath id="b4a30a0bbc"><path d="M 137.679688 83.585938 L 237.921875 83.585938 L 237.921875 183.832031 L 137.679688 183.832031 Z M 137.679688 83.585938 " clip-rule="nonzero"/></clipPath><clipPath id="9e7643be51"><path d="M 192.335938 114.074219 L 218.261719 114.074219 L 218.261719 140 L 192.335938 140 Z M 192.335938 114.074219 " clip-rule="nonzero"/></clipPath></defs><g clip-path="url(#314d934b9a)"><g clip-path="url(#8df5d9dc90)"><path fill="#007aff" d="M 66.089844 66.5 L 309.03125 66.5 L 309.03125 308.5 L 66.089844 308.5 Z M 66.089844 66.5 " fill-opacity="1" fill-rule="nonzero"/></g></g><g clip-path="url(#f4cd922c91)"><path fill="#ffffff" d="M 137.679688 291.394531 C 192.699219 291.394531 237.300781 246.792969 237.300781 191.773438 L 137.679688 191.773438 Z M 137.679688 291.394531 " fill-opacity="1" fill-rule="nonzero"/></g><g clip-path="url(#b4a30a0bbc)"><path fill="#ffffff" d="M 237.300781 83.585938 C 182.28125 83.585938 137.679688 128.1875 137.679688 183.207031 L 237.300781 183.207031 Z M 237.300781 83.585938 " fill-opacity="1" fill-rule="nonzero"/></g><g clip-path="url(#9e7643be51)"><path fill="#007aff" d="M 218.828125 127.320312 C 218.828125 128.191406 218.746094 129.054688 218.574219 129.90625 C 218.40625 130.757812 218.152344 131.585938 217.820312 132.390625 C 217.488281 133.195312 217.082031 133.957031 216.597656 134.679688 C 216.113281 135.40625 215.566406 136.074219 214.949219 136.6875 C 214.335938 137.304688 213.664062 137.851562 212.941406 138.335938 C 212.21875 138.820312 211.457031 139.226562 210.652344 139.558594 C 209.847656 139.894531 209.019531 140.144531 208.167969 140.3125 C 207.316406 140.484375 206.453125 140.566406 205.582031 140.566406 C 204.714844 140.566406 203.851562 140.484375 203 140.3125 C 202.144531 140.144531 201.316406 139.894531 200.515625 139.558594 C 199.710938 139.226562 198.949219 138.820312 198.222656 138.335938 C 197.5 137.851562 196.832031 137.304688 196.21875 136.6875 C 195.601562 136.074219 195.054688 135.40625 194.570312 134.679688 C 194.085938 133.957031 193.679688 133.195312 193.34375 132.390625 C 193.011719 131.585938 192.761719 130.757812 192.589844 129.90625 C 192.421875 129.054688 192.335938 128.191406 192.335938 127.320312 C 192.335938 126.453125 192.421875 125.589844 192.589844 124.738281 C 192.761719 123.886719 193.011719 123.058594 193.34375 122.253906 C 193.679688 121.449219 194.085938 120.6875 194.570312 119.964844 C 195.054688 119.238281 195.601562 118.570312 196.21875 117.957031 C 196.832031 117.339844 197.5 116.792969 198.222656 116.308594 C 198.949219 115.824219 199.710938 115.417969 200.515625 115.085938 C 201.316406 114.75 202.144531 114.5 203 114.332031 C 203.851562 114.160156 204.714844 114.074219 205.582031 114.074219 C 206.453125 114.074219 207.316406 114.160156 208.167969 114.332031 C 209.019531 114.5 209.847656 114.75 210.652344 115.085938 C 211.457031 115.417969 212.21875 115.824219 212.941406 116.308594 C 213.664062 116.792969 214.335938 117.339844 214.949219 117.957031 C 215.566406 118.570312 216.113281 119.238281 216.597656 119.964844 C 217.082031 120.6875 217.488281 121.449219 217.820312 122.253906 C 218.152344 123.058594 218.40625 123.886719 218.574219 124.738281 C 218.746094 125.589844 218.828125 126.453125 218.828125 127.320312 Z M 218.828125 127.320312 " fill-opacity="1" fill-rule="nonzero"/></g></svg>