<svg xmlns="http://www.w3.org/2000/svg" xmlns:xlink="http://www.w3.org/1999/xlink" width="500" zoomAndPan="magnify" viewBox="0 0 375 374.999991" height="500" preserveAspectRatio="xMidYMid meet" version="1.0"><defs><g/><clipPath id="ae1b4a597e"><path d="M 8.019531 134.992188 L 113.441406 134.992188 L 113.441406 240.007812 L 8.019531 240.007812 Z M 8.019531 134.992188 " clip-rule="nonzero"/></clipPath><clipPath id="7dfd054e6e"><path d="M 34.269531 134.992188 L 87.136719 134.992188 C 94.101562 134.992188 100.777344 137.757812 105.699219 142.683594 C 110.621094 147.605469 113.386719 154.28125 113.386719 161.242188 L 113.386719 213.757812 C 113.386719 220.71875 110.621094 227.394531 105.699219 232.316406 C 100.777344 237.242188 94.101562 240.007812 87.136719 240.007812 L 34.269531 240.007812 C 27.308594 240.007812 20.628906 237.242188 15.707031 232.316406 C 10.785156 227.394531 8.019531 220.71875 8.019531 213.757812 L 8.019531 161.242188 C 8.019531 154.28125 10.785156 147.605469 15.707031 142.683594 C 20.628906 137.757812 27.308594 134.992188 34.269531 134.992188 Z M 34.269531 134.992188 " clip-rule="nonzero"/></clipPath><clipPath id="cf6a3b6929"><path d="M 39.085938 189.355469 L 82.316406 189.355469 L 82.316406 232.585938 L 39.085938 232.585938 Z M 39.085938 189.355469 " clip-rule="nonzero"/></clipPath><clipPath id="67e4b5cc08"><path d="M 39.085938 142.40625 L 82.585938 142.40625 L 82.585938 185.90625 L 39.085938 185.90625 Z M 39.085938 142.40625 " clip-rule="nonzero"/></clipPath><clipPath id="a31d992c39"><path d="M 62.800781 155.636719 L 74.050781 155.636719 L 74.050781 166.886719 L 62.800781 166.886719 Z M 62.800781 155.636719 " clip-rule="nonzero"/></clipPath></defs><g clip-path="url(#ae1b4a597e)"><g clip-path="url(#7dfd054e6e)"><path fill="#007aff" d="M 8.019531 134.992188 L 113.441406 134.992188 L 113.441406 240.007812 L 8.019531 240.007812 Z M 8.019531 134.992188 " fill-opacity="1" fill-rule="nonzero"/></g></g><g clip-path="url(#cf6a3b6929)"><path fill="#ffffff" d="M 39.085938 232.585938 C 62.960938 232.585938 82.316406 213.230469 82.316406 189.355469 L 39.085938 189.355469 Z M 39.085938 232.585938 " fill-opacity="1" fill-rule="nonzero"/></g><g clip-path="url(#67e4b5cc08)"><path fill="#ffffff" d="M 82.316406 142.40625 C 58.4375 142.40625 39.085938 161.761719 39.085938 185.636719 L 82.316406 185.636719 Z M 82.316406 142.40625 " fill-opacity="1" fill-rule="nonzero"/></g><g fill="#007aff" fill-opacity="1"><g transform="translate(117.269747, 211.591465)"><g><path d="M 16.65625 0 L 6.5625 0 L 6.5625 -55.125 L 15.359375 -55.125 L 34.375 -29.421875 L 53.5 -55.125 L 62.296875 -55.125 L 62.296875 0 L 52.203125 0 L 52.203125 -38.953125 L 35.703125 -16.40625 L 32.984375 -16.40625 L 16.65625 -39.03125 Z M 16.65625 0 "/></g></g></g><g fill="#007aff" fill-opacity="1"><g transform="translate(180.600747, 211.591465)"><g><path d="M 22.40625 1.25 C 19.601562 1.25 17.003906 0.6875 14.609375 -0.4375 C 12.222656 -1.570312 10.144531 -3.15625 8.375 -5.1875 C 6.601562 -7.21875 5.226562 -9.566406 4.25 -12.234375 C 3.28125 -14.910156 2.796875 -17.773438 2.796875 -20.828125 C 2.796875 -23.878906 3.285156 -26.734375 4.265625 -29.390625 C 5.253906 -32.054688 6.632812 -34.398438 8.40625 -36.421875 C 10.175781 -38.453125 12.25 -40.039062 14.625 -41.1875 C 17.007812 -42.34375 19.59375 -42.921875 22.375 -42.921875 C 25.78125 -42.921875 28.804688 -42.179688 31.453125 -40.703125 C 34.097656 -39.234375 36.082031 -37.203125 37.40625 -34.609375 L 37.40625 -41.65625 L 46.734375 -41.65625 L 46.734375 0 L 37.40625 0 L 37.40625 -7.015625 C 36.050781 -4.421875 34.054688 -2.394531 31.421875 -0.9375 C 28.796875 0.519531 25.789062 1.25 22.40625 1.25 Z M 24.765625 -7.828125 C 26.460938 -7.828125 28.054688 -8.15625 29.546875 -8.8125 C 31.035156 -9.476562 32.335938 -10.394531 33.453125 -11.5625 C 34.578125 -12.738281 35.445312 -14.117188 36.0625 -15.703125 C 36.6875 -17.285156 37 -18.992188 37 -20.828125 C 37 -22.640625 36.679688 -24.332031 36.046875 -25.90625 C 35.410156 -27.488281 34.539062 -28.875 33.4375 -30.0625 C 32.332031 -31.257812 31.035156 -32.1875 29.546875 -32.84375 C 28.054688 -33.507812 26.460938 -33.84375 24.765625 -33.84375 C 22.523438 -33.84375 20.476562 -33.300781 18.625 -32.21875 C 16.769531 -31.132812 15.285156 -29.617188 14.171875 -27.671875 C 13.066406 -25.734375 12.515625 -23.453125 12.515625 -20.828125 C 12.515625 -18.128906 13.078125 -15.804688 14.203125 -13.859375 C 15.328125 -11.910156 16.820312 -10.414062 18.6875 -9.375 C 20.550781 -8.34375 22.578125 -7.828125 24.765625 -7.828125 Z M 24.765625 -7.828125 "/></g></g></g><g fill="#007aff" fill-opacity="1"><g transform="translate(227.600625, 211.591465)"><g><path d="M 15.5625 0 L 5.75 0 L 5.75 -41.65625 L 15.078125 -41.65625 L 15.078125 -35.171875 C 15.890625 -36.691406 16.992188 -38.03125 18.390625 -39.1875 C 19.796875 -40.351562 21.429688 -41.265625 23.296875 -41.921875 C 25.160156 -42.585938 27.160156 -42.921875 29.296875 -42.921875 C 34.890625 -42.921875 39.078125 -41.144531 41.859375 -37.59375 C 44.648438 -34.039062 46.046875 -28.992188 46.046875 -22.453125 L 46.046875 0 L 36.234375 0 L 36.234375 -22.25 C 36.234375 -26.382812 35.367188 -29.351562 33.640625 -31.15625 C 31.910156 -32.96875 29.5625 -33.875 26.59375 -33.875 C 24.664062 -33.875 22.863281 -33.390625 21.1875 -32.421875 C 19.519531 -31.453125 18.164062 -30.035156 17.125 -28.171875 C 16.082031 -26.304688 15.5625 -24.007812 15.5625 -21.28125 Z M 15.5625 0 "/></g></g></g><g fill="#007aff" fill-opacity="1"><g transform="translate(273.587405, 211.591465)"><g><path d="M 31.375 0 L 22.890625 0 C 21.648438 0 20.375 -0.113281 19.0625 -0.34375 C 17.757812 -0.570312 16.507812 -0.992188 15.3125 -1.609375 C 14.125 -2.234375 13.0625 -3.132812 12.125 -4.3125 C 11.195312 -5.488281 10.457031 -7.015625 9.90625 -8.890625 C 9.351562 -10.773438 9.078125 -13.09375 9.078125 -15.84375 L 9.078125 -33.234375 L 0.453125 -33.234375 L 0.453125 -41.65625 L 9.078125 -41.65625 L 9.078125 -53.859375 L 18.890625 -53.9375 L 18.890625 -41.65625 L 31.375 -41.65625 L 31.375 -33.234375 L 18.890625 -33.234375 L 18.890625 -15.40625 C 18.890625 -13.457031 19.171875 -11.957031 19.734375 -10.90625 C 20.304688 -9.851562 21.054688 -9.128906 21.984375 -8.734375 C 22.921875 -8.335938 23.898438 -8.140625 24.921875 -8.140625 L 31.375 -8.140625 Z M 31.375 0 "/></g></g></g><g fill="#007aff" fill-opacity="1"><g transform="translate(301.662634, 211.591465)"><g><path d="M 10.578125 -48.140625 C 8.679688 -48.140625 7.203125 -48.6875 6.140625 -49.78125 C 5.078125 -50.875 4.546875 -52.207031 4.546875 -53.78125 C 4.546875 -55.289062 5.078125 -56.597656 6.140625 -57.703125 C 7.203125 -58.816406 8.695312 -59.375 10.625 -59.375 C 12.59375 -59.375 14.109375 -58.816406 15.171875 -57.703125 C 16.242188 -56.597656 16.78125 -55.289062 16.78125 -53.78125 C 16.78125 -52.207031 16.242188 -50.875 15.171875 -49.78125 C 14.109375 -48.6875 12.578125 -48.140625 10.578125 -48.140625 Z M 15.5625 0 L 5.75 0 L 5.75 -41.65625 L 15.5625 -41.65625 Z M 15.5625 0 "/></g></g></g><g fill="#007aff" fill-opacity="1"><g transform="translate(317.45912, 211.591465)"><g><path d="M 20.75 1.25 C 17.695312 1.25 15.039062 0.84375 12.78125 0.03125 C 10.53125 -0.769531 8.664062 -1.859375 7.1875 -3.234375 C 5.71875 -4.617188 4.625 -6.175781 3.90625 -7.90625 C 3.195312 -9.632812 2.84375 -11.414062 2.84375 -13.25 L 12.234375 -13.21875 C 12.316406 -11.320312 13.070312 -9.734375 14.5 -8.453125 C 15.9375 -7.171875 18.046875 -6.53125 20.828125 -6.53125 C 23.367188 -6.53125 25.238281 -7.015625 26.4375 -7.984375 C 27.644531 -8.953125 28.25 -10.222656 28.25 -11.796875 C 28.25 -12.984375 27.910156 -13.914062 27.234375 -14.59375 C 26.554688 -15.269531 25.5625 -15.800781 24.25 -16.1875 C 22.945312 -16.582031 21.347656 -16.914062 19.453125 -17.1875 C 17.453125 -17.457031 15.550781 -17.875 13.75 -18.4375 C 11.957031 -19.007812 10.375 -19.796875 9 -20.796875 C 7.625 -21.796875 6.535156 -23.050781 5.734375 -24.5625 C 4.941406 -26.070312 4.546875 -27.910156 4.546875 -30.078125 C 4.546875 -32.640625 5.144531 -34.878906 6.34375 -36.796875 C 7.539062 -38.710938 9.304688 -40.210938 11.640625 -41.296875 C 13.984375 -42.378906 16.84375 -42.921875 20.21875 -42.921875 C 23.570312 -42.921875 26.507812 -42.359375 29.03125 -41.234375 C 31.5625 -40.117188 33.53125 -38.550781 34.9375 -36.53125 C 36.34375 -34.519531 37.046875 -32.191406 37.046875 -29.546875 L 27.4375 -29.625 C 27.332031 -31.164062 26.675781 -32.425781 25.46875 -33.40625 C 24.269531 -34.394531 22.535156 -34.890625 20.265625 -34.890625 C 18.160156 -34.890625 16.617188 -34.4375 15.640625 -33.53125 C 14.671875 -32.625 14.1875 -31.539062 14.1875 -30.28125 C 14.1875 -29.25 14.414062 -28.414062 14.875 -27.78125 C 15.332031 -27.144531 16.1875 -26.617188 17.4375 -26.203125 C 18.695312 -25.785156 20.515625 -25.382812 22.890625 -25 C 25.054688 -24.675781 27.070312 -24.242188 28.9375 -23.703125 C 30.800781 -23.160156 32.425781 -22.425781 33.8125 -21.5 C 35.207031 -20.570312 36.296875 -19.367188 37.078125 -17.890625 C 37.867188 -16.421875 38.265625 -14.578125 38.265625 -12.359375 C 38.265625 -9.304688 37.5 -6.773438 35.96875 -4.765625 C 34.4375 -2.753906 32.351562 -1.25 29.71875 -0.25 C 27.09375 0.75 24.101562 1.25 20.75 1.25 Z M 20.75 1.25 "/></g></g></g><g clip-path="url(#a31d992c39)"><path fill="#007aff" d="M 74.296875 161.386719 C 74.296875 161.765625 74.261719 162.136719 74.1875 162.507812 C 74.113281 162.878906 74.003906 163.238281 73.859375 163.585938 C 73.71875 163.933594 73.539062 164.265625 73.332031 164.578125 C 73.121094 164.894531 72.882812 165.183594 72.617188 165.449219 C 72.347656 165.71875 72.058594 165.957031 71.746094 166.164062 C 71.429688 166.375 71.097656 166.550781 70.75 166.695312 C 70.402344 166.839844 70.042969 166.949219 69.671875 167.023438 C 69.300781 167.097656 68.929688 167.132812 68.550781 167.132812 C 68.171875 167.132812 67.800781 167.097656 67.429688 167.023438 C 67.058594 166.949219 66.699219 166.839844 66.351562 166.695312 C 66.003906 166.550781 65.671875 166.375 65.355469 166.164062 C 65.042969 165.957031 64.753906 165.71875 64.484375 165.449219 C 64.21875 165.183594 63.980469 164.894531 63.769531 164.578125 C 63.5625 164.265625 63.382812 163.933594 63.242188 163.585938 C 63.097656 163.238281 62.988281 162.878906 62.914062 162.507812 C 62.839844 162.136719 62.800781 161.765625 62.800781 161.386719 C 62.800781 161.007812 62.839844 160.636719 62.914062 160.265625 C 62.988281 159.894531 63.097656 159.535156 63.242188 159.1875 C 63.382812 158.839844 63.5625 158.507812 63.769531 158.191406 C 63.980469 157.878906 64.21875 157.589844 64.484375 157.320312 C 64.753906 157.054688 65.042969 156.816406 65.355469 156.605469 C 65.671875 156.398438 66.003906 156.21875 66.351562 156.074219 C 66.699219 155.929688 67.058594 155.824219 67.429688 155.75 C 67.800781 155.675781 68.171875 155.636719 68.550781 155.636719 C 68.929688 155.636719 69.300781 155.675781 69.671875 155.75 C 70.042969 155.824219 70.402344 155.929688 70.75 156.074219 C 71.097656 156.21875 71.429688 156.398438 71.746094 156.605469 C 72.058594 156.816406 72.347656 157.054688 72.617188 157.320312 C 72.882812 157.589844 73.121094 157.878906 73.332031 158.191406 C 73.539062 158.507812 73.71875 158.839844 73.859375 159.1875 C 74.003906 159.535156 74.113281 159.894531 74.1875 160.265625 C 74.261719 160.636719 74.296875 161.007812 74.296875 161.386719 Z M 74.296875 161.386719 " fill-opacity="1" fill-rule="nonzero"/></g></svg>